<mxfile host="app.diagrams.net" agent="Mozilla/5.0 (Macintosh; Intel Mac OS X 10_15_7) AppleWebKit/537.36 (KHTML, like Gecko) Chrome/130.0.0.0 Safari/537.36" version="24.8.2">
  <diagram name="Strona-1" id="Qug85Xm8MsD0ged3D32k">
    <mxGraphModel dx="2021" dy="862" grid="1" gridSize="10" guides="1" tooltips="1" connect="1" arrows="1" fold="1" page="1" pageScale="1" pageWidth="827" pageHeight="1169" math="0" shadow="0">
      <root>
        <mxCell id="0" />
        <mxCell id="1" parent="0" />
        <mxCell id="Wiyv4J4VftKUWs66t4UB-8" style="edgeStyle=orthogonalEdgeStyle;rounded=0;orthogonalLoop=1;jettySize=auto;html=1;entryX=1;entryY=0.5;entryDx=0;entryDy=0;" parent="1" edge="1">
          <mxGeometry relative="1" as="geometry">
            <mxPoint x="180" y="140" as="targetPoint" />
          </mxGeometry>
        </mxCell>
        <mxCell id="GCYZfr7af3xyStUnqvK9-22" style="edgeStyle=orthogonalEdgeStyle;rounded=0;orthogonalLoop=1;jettySize=auto;html=1;entryX=0;entryY=0.75;entryDx=0;entryDy=0;" parent="1" source="GCYZfr7af3xyStUnqvK9-1" target="GCYZfr7af3xyStUnqvK9-18" edge="1">
          <mxGeometry relative="1" as="geometry" />
        </mxCell>
        <mxCell id="GCYZfr7af3xyStUnqvK9-1" value="zarzadzanie danymi&lt;div&gt;&lt;br&gt;&lt;/div&gt;" style="rounded=0;whiteSpace=wrap;html=1;fillColor=#ffe6cc;strokeColor=#d79b00;" parent="1" vertex="1">
          <mxGeometry x="-270" y="480" width="120" height="60" as="geometry" />
        </mxCell>
        <mxCell id="GCYZfr7af3xyStUnqvK9-47" style="edgeStyle=orthogonalEdgeStyle;rounded=0;orthogonalLoop=1;jettySize=auto;html=1;entryX=0;entryY=0.5;entryDx=0;entryDy=0;" parent="1" source="GCYZfr7af3xyStUnqvK9-2" target="GCYZfr7af3xyStUnqvK9-46" edge="1">
          <mxGeometry relative="1" as="geometry" />
        </mxCell>
        <mxCell id="zikqFcTYSRr6rRfWWHI3-1" style="edgeStyle=orthogonalEdgeStyle;rounded=0;orthogonalLoop=1;jettySize=auto;html=1;entryX=0;entryY=0.5;entryDx=0;entryDy=0;" parent="1" source="GCYZfr7af3xyStUnqvK9-2" target="GCYZfr7af3xyStUnqvK9-1" edge="1">
          <mxGeometry relative="1" as="geometry">
            <Array as="points">
              <mxPoint x="-310" y="520" />
              <mxPoint x="-310" y="510" />
            </Array>
          </mxGeometry>
        </mxCell>
        <mxCell id="GCYZfr7af3xyStUnqvK9-2" value="mqtt" style="rhombus;whiteSpace=wrap;html=1;" parent="1" vertex="1">
          <mxGeometry x="-470" y="470" width="80" height="80" as="geometry" />
        </mxCell>
        <mxCell id="GCYZfr7af3xyStUnqvK9-4" value="" style="html=1;whiteSpace=wrap;shape=isoCube2;backgroundOutline=1;isoAngle=15;" parent="1" vertex="1">
          <mxGeometry x="-340" y="465" width="30" height="30" as="geometry" />
        </mxCell>
        <mxCell id="GCYZfr7af3xyStUnqvK9-5" value="Table" style="shape=table;startSize=30;container=1;collapsible=0;childLayout=tableLayout;strokeColor=default;fontSize=16;" parent="1" vertex="1">
          <mxGeometry x="-290" y="720" width="180" height="150" as="geometry" />
        </mxCell>
        <mxCell id="GCYZfr7af3xyStUnqvK9-6" value="" style="shape=tableRow;horizontal=0;startSize=0;swimlaneHead=0;swimlaneBody=0;strokeColor=inherit;top=0;left=0;bottom=0;right=0;collapsible=0;dropTarget=0;fillColor=none;points=[[0,0.5],[1,0.5]];portConstraint=eastwest;fontSize=16;" parent="GCYZfr7af3xyStUnqvK9-5" vertex="1">
          <mxGeometry y="30" width="180" height="40" as="geometry" />
        </mxCell>
        <mxCell id="GCYZfr7af3xyStUnqvK9-7" value="MAC" style="shape=partialRectangle;html=1;whiteSpace=wrap;connectable=0;strokeColor=inherit;overflow=hidden;fillColor=none;top=0;left=0;bottom=0;right=0;pointerEvents=1;fontSize=16;" parent="GCYZfr7af3xyStUnqvK9-6" vertex="1">
          <mxGeometry width="60" height="40" as="geometry">
            <mxRectangle width="60" height="40" as="alternateBounds" />
          </mxGeometry>
        </mxCell>
        <mxCell id="GCYZfr7af3xyStUnqvK9-8" value="VAL1" style="shape=partialRectangle;html=1;whiteSpace=wrap;connectable=0;strokeColor=inherit;overflow=hidden;fillColor=none;top=0;left=0;bottom=0;right=0;pointerEvents=1;fontSize=16;" parent="GCYZfr7af3xyStUnqvK9-6" vertex="1">
          <mxGeometry x="60" width="60" height="40" as="geometry">
            <mxRectangle width="60" height="40" as="alternateBounds" />
          </mxGeometry>
        </mxCell>
        <mxCell id="GCYZfr7af3xyStUnqvK9-9" value="VAL2" style="shape=partialRectangle;html=1;whiteSpace=wrap;connectable=0;strokeColor=inherit;overflow=hidden;fillColor=none;top=0;left=0;bottom=0;right=0;pointerEvents=1;fontSize=16;" parent="GCYZfr7af3xyStUnqvK9-6" vertex="1">
          <mxGeometry x="120" width="60" height="40" as="geometry">
            <mxRectangle width="60" height="40" as="alternateBounds" />
          </mxGeometry>
        </mxCell>
        <mxCell id="GCYZfr7af3xyStUnqvK9-10" value="" style="shape=tableRow;horizontal=0;startSize=0;swimlaneHead=0;swimlaneBody=0;strokeColor=inherit;top=0;left=0;bottom=0;right=0;collapsible=0;dropTarget=0;fillColor=none;points=[[0,0.5],[1,0.5]];portConstraint=eastwest;fontSize=16;" parent="GCYZfr7af3xyStUnqvK9-5" vertex="1">
          <mxGeometry y="70" width="180" height="40" as="geometry" />
        </mxCell>
        <mxCell id="GCYZfr7af3xyStUnqvK9-11" value="" style="shape=partialRectangle;html=1;whiteSpace=wrap;connectable=0;strokeColor=inherit;overflow=hidden;fillColor=none;top=0;left=0;bottom=0;right=0;pointerEvents=1;fontSize=16;" parent="GCYZfr7af3xyStUnqvK9-10" vertex="1">
          <mxGeometry width="60" height="40" as="geometry">
            <mxRectangle width="60" height="40" as="alternateBounds" />
          </mxGeometry>
        </mxCell>
        <mxCell id="GCYZfr7af3xyStUnqvK9-12" value="" style="shape=partialRectangle;html=1;whiteSpace=wrap;connectable=0;strokeColor=inherit;overflow=hidden;fillColor=none;top=0;left=0;bottom=0;right=0;pointerEvents=1;fontSize=16;" parent="GCYZfr7af3xyStUnqvK9-10" vertex="1">
          <mxGeometry x="60" width="60" height="40" as="geometry">
            <mxRectangle width="60" height="40" as="alternateBounds" />
          </mxGeometry>
        </mxCell>
        <mxCell id="GCYZfr7af3xyStUnqvK9-13" value="" style="shape=partialRectangle;html=1;whiteSpace=wrap;connectable=0;strokeColor=inherit;overflow=hidden;fillColor=none;top=0;left=0;bottom=0;right=0;pointerEvents=1;fontSize=16;" parent="GCYZfr7af3xyStUnqvK9-10" vertex="1">
          <mxGeometry x="120" width="60" height="40" as="geometry">
            <mxRectangle width="60" height="40" as="alternateBounds" />
          </mxGeometry>
        </mxCell>
        <mxCell id="GCYZfr7af3xyStUnqvK9-14" value="" style="shape=tableRow;horizontal=0;startSize=0;swimlaneHead=0;swimlaneBody=0;strokeColor=inherit;top=0;left=0;bottom=0;right=0;collapsible=0;dropTarget=0;fillColor=none;points=[[0,0.5],[1,0.5]];portConstraint=eastwest;fontSize=16;" parent="GCYZfr7af3xyStUnqvK9-5" vertex="1">
          <mxGeometry y="110" width="180" height="40" as="geometry" />
        </mxCell>
        <mxCell id="GCYZfr7af3xyStUnqvK9-15" value="" style="shape=partialRectangle;html=1;whiteSpace=wrap;connectable=0;strokeColor=inherit;overflow=hidden;fillColor=none;top=0;left=0;bottom=0;right=0;pointerEvents=1;fontSize=16;" parent="GCYZfr7af3xyStUnqvK9-14" vertex="1">
          <mxGeometry width="60" height="40" as="geometry">
            <mxRectangle width="60" height="40" as="alternateBounds" />
          </mxGeometry>
        </mxCell>
        <mxCell id="GCYZfr7af3xyStUnqvK9-16" value="" style="shape=partialRectangle;html=1;whiteSpace=wrap;connectable=0;strokeColor=inherit;overflow=hidden;fillColor=none;top=0;left=0;bottom=0;right=0;pointerEvents=1;fontSize=16;" parent="GCYZfr7af3xyStUnqvK9-14" vertex="1">
          <mxGeometry x="60" width="60" height="40" as="geometry">
            <mxRectangle width="60" height="40" as="alternateBounds" />
          </mxGeometry>
        </mxCell>
        <mxCell id="GCYZfr7af3xyStUnqvK9-17" value="" style="shape=partialRectangle;html=1;whiteSpace=wrap;connectable=0;strokeColor=inherit;overflow=hidden;fillColor=none;top=0;left=0;bottom=0;right=0;pointerEvents=1;fontSize=16;" parent="GCYZfr7af3xyStUnqvK9-14" vertex="1">
          <mxGeometry x="120" width="60" height="40" as="geometry">
            <mxRectangle width="60" height="40" as="alternateBounds" />
          </mxGeometry>
        </mxCell>
        <mxCell id="GCYZfr7af3xyStUnqvK9-21" style="edgeStyle=orthogonalEdgeStyle;rounded=0;orthogonalLoop=1;jettySize=auto;html=1;exitX=0;exitY=0.5;exitDx=0;exitDy=0;entryX=1;entryY=0.25;entryDx=0;entryDy=0;" parent="1" source="GCYZfr7af3xyStUnqvK9-44" target="GCYZfr7af3xyStUnqvK9-1" edge="1">
          <mxGeometry relative="1" as="geometry">
            <Array as="points">
              <mxPoint x="-130" y="420" />
              <mxPoint x="-130" y="495" />
            </Array>
          </mxGeometry>
        </mxCell>
        <mxCell id="GCYZfr7af3xyStUnqvK9-18" value="&lt;div&gt;auth&lt;br&gt;uzytkownicy&lt;/div&gt;" style="whiteSpace=wrap;html=1;aspect=fixed;fillColor=#ffe6cc;strokeColor=#d79b00;" parent="1" vertex="1">
          <mxGeometry x="70" y="490" width="80" height="80" as="geometry" />
        </mxCell>
        <mxCell id="GCYZfr7af3xyStUnqvK9-20" style="edgeStyle=orthogonalEdgeStyle;rounded=0;orthogonalLoop=1;jettySize=auto;html=1;entryX=1;entryY=0.5;entryDx=0;entryDy=0;" parent="1" source="GCYZfr7af3xyStUnqvK9-19" target="GCYZfr7af3xyStUnqvK9-18" edge="1">
          <mxGeometry relative="1" as="geometry" />
        </mxCell>
        <mxCell id="ompfXLkwIOUXX69CM6l--2" value="REST" style="edgeLabel;html=1;align=center;verticalAlign=middle;resizable=0;points=[];" vertex="1" connectable="0" parent="GCYZfr7af3xyStUnqvK9-20">
          <mxGeometry x="-0.0588" y="-2" relative="1" as="geometry">
            <mxPoint as="offset" />
          </mxGeometry>
        </mxCell>
        <mxCell id="GCYZfr7af3xyStUnqvK9-19" value="Actor" style="shape=umlActor;verticalLabelPosition=bottom;verticalAlign=top;html=1;outlineConnect=0;" parent="1" vertex="1">
          <mxGeometry x="210" y="610" width="30" height="60" as="geometry" />
        </mxCell>
        <mxCell id="GCYZfr7af3xyStUnqvK9-23" style="edgeStyle=orthogonalEdgeStyle;rounded=0;orthogonalLoop=1;jettySize=auto;html=1;exitX=1;exitY=0.75;exitDx=0;exitDy=0;entryX=0.25;entryY=0.1;entryDx=0;entryDy=0;entryPerimeter=0;" parent="1" source="GCYZfr7af3xyStUnqvK9-18" target="GCYZfr7af3xyStUnqvK9-19" edge="1">
          <mxGeometry relative="1" as="geometry">
            <Array as="points">
              <mxPoint x="160" y="550" />
              <mxPoint x="160" y="690" />
              <mxPoint x="218" y="690" />
            </Array>
          </mxGeometry>
        </mxCell>
        <mxCell id="ompfXLkwIOUXX69CM6l--3" value="REST" style="edgeLabel;html=1;align=center;verticalAlign=middle;resizable=0;points=[];" vertex="1" connectable="0" parent="GCYZfr7af3xyStUnqvK9-23">
          <mxGeometry x="-0.3393" y="-2" relative="1" as="geometry">
            <mxPoint as="offset" />
          </mxGeometry>
        </mxCell>
        <mxCell id="GCYZfr7af3xyStUnqvK9-31" style="edgeStyle=orthogonalEdgeStyle;rounded=0;orthogonalLoop=1;jettySize=auto;html=1;" parent="1" source="GCYZfr7af3xyStUnqvK9-28" edge="1">
          <mxGeometry relative="1" as="geometry">
            <mxPoint x="-430" y="470" as="targetPoint" />
          </mxGeometry>
        </mxCell>
        <mxCell id="GCYZfr7af3xyStUnqvK9-28" value="ESP32" style="shape=or;whiteSpace=wrap;html=1;" parent="1" vertex="1">
          <mxGeometry x="-580" y="310" width="60" height="80" as="geometry" />
        </mxCell>
        <mxCell id="GCYZfr7af3xyStUnqvK9-32" style="edgeStyle=orthogonalEdgeStyle;rounded=0;orthogonalLoop=1;jettySize=auto;html=1;entryX=0.5;entryY=0;entryDx=0;entryDy=0;" parent="1" source="GCYZfr7af3xyStUnqvK9-29" target="GCYZfr7af3xyStUnqvK9-2" edge="1">
          <mxGeometry relative="1" as="geometry" />
        </mxCell>
        <mxCell id="GCYZfr7af3xyStUnqvK9-29" value="ESP32" style="shape=or;whiteSpace=wrap;html=1;" parent="1" vertex="1">
          <mxGeometry x="-580" y="405" width="60" height="80" as="geometry" />
        </mxCell>
        <mxCell id="GCYZfr7af3xyStUnqvK9-33" style="edgeStyle=orthogonalEdgeStyle;rounded=0;orthogonalLoop=1;jettySize=auto;html=1;entryX=0;entryY=0.5;entryDx=0;entryDy=0;" parent="1" source="GCYZfr7af3xyStUnqvK9-30" target="GCYZfr7af3xyStUnqvK9-2" edge="1">
          <mxGeometry relative="1" as="geometry" />
        </mxCell>
        <mxCell id="GCYZfr7af3xyStUnqvK9-30" value="ESP32" style="shape=or;whiteSpace=wrap;html=1;" parent="1" vertex="1">
          <mxGeometry x="-580" y="510" width="60" height="80" as="geometry" />
        </mxCell>
        <mxCell id="GCYZfr7af3xyStUnqvK9-34" value="" style="endArrow=none;dashed=1;html=1;dashPattern=1 3;strokeWidth=2;rounded=0;" parent="1" edge="1">
          <mxGeometry width="50" height="50" relative="1" as="geometry">
            <mxPoint x="-570" y="650" as="sourcePoint" />
            <mxPoint x="-570" y="610" as="targetPoint" />
          </mxGeometry>
        </mxCell>
        <mxCell id="GCYZfr7af3xyStUnqvK9-39" style="edgeStyle=orthogonalEdgeStyle;rounded=0;orthogonalLoop=1;jettySize=auto;html=1;entryX=0.5;entryY=0;entryDx=0;entryDy=0;" parent="1" source="GCYZfr7af3xyStUnqvK9-35" target="GCYZfr7af3xyStUnqvK9-5" edge="1">
          <mxGeometry relative="1" as="geometry" />
        </mxCell>
        <mxCell id="GCYZfr7af3xyStUnqvK9-35" value="WRITE" style="shape=cylinder3;whiteSpace=wrap;html=1;boundedLbl=1;backgroundOutline=1;size=15;" parent="1" vertex="1">
          <mxGeometry x="-280" y="580" width="60" height="80" as="geometry" />
        </mxCell>
        <mxCell id="GCYZfr7af3xyStUnqvK9-41" style="edgeStyle=orthogonalEdgeStyle;rounded=0;orthogonalLoop=1;jettySize=auto;html=1;" parent="1" source="GCYZfr7af3xyStUnqvK9-37" edge="1">
          <mxGeometry relative="1" as="geometry">
            <mxPoint x="-210" y="540" as="targetPoint" />
            <Array as="points">
              <mxPoint x="-150" y="570" />
              <mxPoint x="-209" y="570" />
            </Array>
          </mxGeometry>
        </mxCell>
        <mxCell id="GCYZfr7af3xyStUnqvK9-37" value="READ" style="shape=cylinder3;whiteSpace=wrap;html=1;boundedLbl=1;backgroundOutline=1;size=15;" parent="1" vertex="1">
          <mxGeometry x="-180" y="580" width="60" height="80" as="geometry" />
        </mxCell>
        <mxCell id="GCYZfr7af3xyStUnqvK9-38" style="edgeStyle=orthogonalEdgeStyle;rounded=0;orthogonalLoop=1;jettySize=auto;html=1;entryX=0.5;entryY=0;entryDx=0;entryDy=0;entryPerimeter=0;" parent="1" source="GCYZfr7af3xyStUnqvK9-1" target="GCYZfr7af3xyStUnqvK9-35" edge="1">
          <mxGeometry relative="1" as="geometry" />
        </mxCell>
        <mxCell id="GCYZfr7af3xyStUnqvK9-40" style="edgeStyle=orthogonalEdgeStyle;rounded=0;orthogonalLoop=1;jettySize=auto;html=1;entryX=0.5;entryY=1;entryDx=0;entryDy=0;entryPerimeter=0;" parent="1" source="GCYZfr7af3xyStUnqvK9-5" target="GCYZfr7af3xyStUnqvK9-37" edge="1">
          <mxGeometry relative="1" as="geometry" />
        </mxCell>
        <mxCell id="GCYZfr7af3xyStUnqvK9-43" style="edgeStyle=orthogonalEdgeStyle;rounded=0;orthogonalLoop=1;jettySize=auto;html=1;entryX=0.5;entryY=1;entryDx=0;entryDy=0;" parent="1" source="GCYZfr7af3xyStUnqvK9-42" target="GCYZfr7af3xyStUnqvK9-2" edge="1">
          <mxGeometry relative="1" as="geometry" />
        </mxCell>
        <mxCell id="GCYZfr7af3xyStUnqvK9-42" value="ESP32" style="shape=or;whiteSpace=wrap;html=1;" parent="1" vertex="1">
          <mxGeometry x="-580" y="670" width="60" height="80" as="geometry" />
        </mxCell>
        <mxCell id="GCYZfr7af3xyStUnqvK9-45" value="" style="edgeStyle=orthogonalEdgeStyle;rounded=0;orthogonalLoop=1;jettySize=auto;html=1;exitX=0;exitY=0.5;exitDx=0;exitDy=0;entryX=1;entryY=0.25;entryDx=0;entryDy=0;" parent="1" source="GCYZfr7af3xyStUnqvK9-18" target="GCYZfr7af3xyStUnqvK9-44" edge="1">
          <mxGeometry relative="1" as="geometry">
            <mxPoint x="70" y="530" as="sourcePoint" />
            <mxPoint x="-150" y="495" as="targetPoint" />
            <Array as="points">
              <mxPoint x="40" y="530" />
              <mxPoint x="40" y="420" />
              <mxPoint x="20" y="420" />
            </Array>
          </mxGeometry>
        </mxCell>
        <mxCell id="ompfXLkwIOUXX69CM6l--1" value="gRPC" style="edgeLabel;html=1;align=center;verticalAlign=middle;resizable=0;points=[];" vertex="1" connectable="0" parent="GCYZfr7af3xyStUnqvK9-45">
          <mxGeometry x="0.3" relative="1" as="geometry">
            <mxPoint y="24" as="offset" />
          </mxGeometry>
        </mxCell>
        <mxCell id="zikqFcTYSRr6rRfWWHI3-66" style="edgeStyle=orthogonalEdgeStyle;rounded=0;orthogonalLoop=1;jettySize=auto;html=1;entryX=1;entryY=0.75;entryDx=0;entryDy=0;" parent="1" source="GCYZfr7af3xyStUnqvK9-44" target="GCYZfr7af3xyStUnqvK9-46" edge="1">
          <mxGeometry relative="1" as="geometry">
            <Array as="points">
              <mxPoint x="-10" y="360" />
              <mxPoint x="-200" y="360" />
              <mxPoint x="-200" y="425" />
            </Array>
          </mxGeometry>
        </mxCell>
        <mxCell id="GCYZfr7af3xyStUnqvK9-44" value="&lt;div&gt;zarzadzanie urzadzeniami&lt;/div&gt;" style="rounded=0;whiteSpace=wrap;html=1;fillColor=#ffe6cc;strokeColor=#d79b00;" parent="1" vertex="1">
          <mxGeometry x="-100" y="405" width="120" height="60" as="geometry" />
        </mxCell>
        <mxCell id="zikqFcTYSRr6rRfWWHI3-65" style="edgeStyle=orthogonalEdgeStyle;rounded=0;orthogonalLoop=1;jettySize=auto;html=1;entryX=0.5;entryY=0;entryDx=0;entryDy=0;" parent="1" source="GCYZfr7af3xyStUnqvK9-46" target="GCYZfr7af3xyStUnqvK9-44" edge="1">
          <mxGeometry relative="1" as="geometry" />
        </mxCell>
        <mxCell id="GCYZfr7af3xyStUnqvK9-46" value="auth-esp" style="rounded=0;whiteSpace=wrap;html=1;fillColor=#dae8fc;strokeColor=#6c8ebf;" parent="1" vertex="1">
          <mxGeometry x="-375" y="380" width="120" height="60" as="geometry" />
        </mxCell>
        <mxCell id="zikqFcTYSRr6rRfWWHI3-22" style="edgeStyle=orthogonalEdgeStyle;rounded=0;orthogonalLoop=1;jettySize=auto;html=1;" parent="1" source="zikqFcTYSRr6rRfWWHI3-2" edge="1">
          <mxGeometry relative="1" as="geometry">
            <mxPoint x="-10" y="1169" as="targetPoint" />
          </mxGeometry>
        </mxCell>
        <mxCell id="zikqFcTYSRr6rRfWWHI3-2" value="esp&lt;div&gt;&lt;br&gt;&lt;/div&gt;" style="shape=or;whiteSpace=wrap;html=1;" parent="1" vertex="1">
          <mxGeometry x="-150" y="1129" width="60" height="80" as="geometry" />
        </mxCell>
        <mxCell id="zikqFcTYSRr6rRfWWHI3-6" style="edgeStyle=orthogonalEdgeStyle;rounded=0;orthogonalLoop=1;jettySize=auto;html=1;entryX=0;entryY=0.5;entryDx=0;entryDy=0;" parent="1" source="zikqFcTYSRr6rRfWWHI3-8" target="zikqFcTYSRr6rRfWWHI3-4" edge="1">
          <mxGeometry relative="1" as="geometry" />
        </mxCell>
        <mxCell id="zikqFcTYSRr6rRfWWHI3-12" style="edgeStyle=orthogonalEdgeStyle;rounded=0;orthogonalLoop=1;jettySize=auto;html=1;entryX=0;entryY=0.5;entryDx=0;entryDy=0;" parent="1" source="zikqFcTYSRr6rRfWWHI3-3" target="zikqFcTYSRr6rRfWWHI3-11" edge="1">
          <mxGeometry relative="1" as="geometry">
            <Array as="points">
              <mxPoint x="125" y="1239" />
            </Array>
          </mxGeometry>
        </mxCell>
        <mxCell id="zikqFcTYSRr6rRfWWHI3-34" value="data" style="edgeLabel;html=1;align=center;verticalAlign=middle;resizable=0;points=[];" parent="zikqFcTYSRr6rRfWWHI3-12" vertex="1" connectable="0">
          <mxGeometry x="0.0854" y="-2" relative="1" as="geometry">
            <mxPoint as="offset" />
          </mxGeometry>
        </mxCell>
        <mxCell id="zikqFcTYSRr6rRfWWHI3-3" value="mqtt" style="rhombus;whiteSpace=wrap;html=1;" parent="1" vertex="1">
          <mxGeometry x="85" y="1120" width="80" height="80" as="geometry" />
        </mxCell>
        <mxCell id="zikqFcTYSRr6rRfWWHI3-7" style="edgeStyle=orthogonalEdgeStyle;rounded=0;orthogonalLoop=1;jettySize=auto;html=1;entryX=1;entryY=1;entryDx=0;entryDy=0;" parent="1" source="zikqFcTYSRr6rRfWWHI3-9" target="zikqFcTYSRr6rRfWWHI3-3" edge="1">
          <mxGeometry relative="1" as="geometry">
            <Array as="points" />
          </mxGeometry>
        </mxCell>
        <mxCell id="zikqFcTYSRr6rRfWWHI3-18" style="edgeStyle=orthogonalEdgeStyle;rounded=0;orthogonalLoop=1;jettySize=auto;html=1;entryX=1;entryY=0.5;entryDx=0;entryDy=0;" parent="1" source="zikqFcTYSRr6rRfWWHI3-4" target="zikqFcTYSRr6rRfWWHI3-9" edge="1">
          <mxGeometry relative="1" as="geometry">
            <Array as="points">
              <mxPoint x="394" y="1170" />
              <mxPoint x="330" y="1170" />
              <mxPoint x="330" y="1184" />
            </Array>
          </mxGeometry>
        </mxCell>
        <mxCell id="zikqFcTYSRr6rRfWWHI3-64" style="edgeStyle=orthogonalEdgeStyle;rounded=0;orthogonalLoop=1;jettySize=auto;html=1;" parent="1" source="zikqFcTYSRr6rRfWWHI3-4" target="zikqFcTYSRr6rRfWWHI3-47" edge="1">
          <mxGeometry relative="1" as="geometry" />
        </mxCell>
        <mxCell id="zikqFcTYSRr6rRfWWHI3-4" value="esp auth" style="rounded=0;whiteSpace=wrap;html=1;" parent="1" vertex="1">
          <mxGeometry x="334" y="1090" width="120" height="60" as="geometry" />
        </mxCell>
        <mxCell id="zikqFcTYSRr6rRfWWHI3-11" value="zarzadzanie danych" style="rounded=0;whiteSpace=wrap;html=1;" parent="1" vertex="1">
          <mxGeometry x="285" y="1209" width="120" height="60" as="geometry" />
        </mxCell>
        <mxCell id="zikqFcTYSRr6rRfWWHI3-13" value="WRITE" style="shape=cylinder3;whiteSpace=wrap;html=1;boundedLbl=1;backgroundOutline=1;size=15;" parent="1" vertex="1">
          <mxGeometry x="500" y="1200" width="60" height="80" as="geometry" />
        </mxCell>
        <mxCell id="zikqFcTYSRr6rRfWWHI3-15" style="edgeStyle=orthogonalEdgeStyle;rounded=0;orthogonalLoop=1;jettySize=auto;html=1;entryX=0;entryY=0.5;entryDx=0;entryDy=0;entryPerimeter=0;" parent="1" source="zikqFcTYSRr6rRfWWHI3-11" target="zikqFcTYSRr6rRfWWHI3-13" edge="1">
          <mxGeometry relative="1" as="geometry" />
        </mxCell>
        <mxCell id="zikqFcTYSRr6rRfWWHI3-9" value="token" style="text;html=1;align=center;verticalAlign=middle;whiteSpace=wrap;rounded=0;" parent="1" vertex="1">
          <mxGeometry x="250" y="1169" width="60" height="30" as="geometry" />
        </mxCell>
        <mxCell id="zikqFcTYSRr6rRfWWHI3-17" value="" style="edgeStyle=orthogonalEdgeStyle;rounded=0;orthogonalLoop=1;jettySize=auto;html=1;entryX=0;entryY=0.5;entryDx=0;entryDy=0;" parent="1" source="zikqFcTYSRr6rRfWWHI3-3" target="zikqFcTYSRr6rRfWWHI3-8" edge="1">
          <mxGeometry relative="1" as="geometry">
            <mxPoint x="165" y="1160" as="sourcePoint" />
            <mxPoint x="334" y="1120" as="targetPoint" />
          </mxGeometry>
        </mxCell>
        <mxCell id="zikqFcTYSRr6rRfWWHI3-8" value="macaddress" style="text;html=1;align=center;verticalAlign=middle;whiteSpace=wrap;rounded=0;" parent="1" vertex="1">
          <mxGeometry x="200" y="1139" width="60" height="30" as="geometry" />
        </mxCell>
        <mxCell id="zikqFcTYSRr6rRfWWHI3-20" value="" style="endArrow=none;html=1;rounded=0;" parent="1" edge="1">
          <mxGeometry width="50" height="50" relative="1" as="geometry">
            <mxPoint x="85" y="1269" as="sourcePoint" />
            <mxPoint x="85" y="1029" as="targetPoint" />
          </mxGeometry>
        </mxCell>
        <mxCell id="zikqFcTYSRr6rRfWWHI3-21" value="" style="endArrow=none;html=1;rounded=0;" parent="1" edge="1">
          <mxGeometry width="50" height="50" relative="1" as="geometry">
            <mxPoint x="-10" y="1274" as="sourcePoint" />
            <mxPoint x="-10" y="1034" as="targetPoint" />
          </mxGeometry>
        </mxCell>
        <mxCell id="zikqFcTYSRr6rRfWWHI3-24" value="" style="endArrow=classic;html=1;rounded=0;" parent="1" source="zikqFcTYSRr6rRfWWHI3-19" edge="1">
          <mxGeometry width="50" height="50" relative="1" as="geometry">
            <mxPoint x="-10" y="1090" as="sourcePoint" />
            <mxPoint x="80" y="1090" as="targetPoint" />
          </mxGeometry>
        </mxCell>
        <mxCell id="zikqFcTYSRr6rRfWWHI3-25" value="" style="endArrow=classic;html=1;rounded=0;" parent="1" source="zikqFcTYSRr6rRfWWHI3-26" edge="1">
          <mxGeometry width="50" height="50" relative="1" as="geometry">
            <mxPoint x="90" y="1120" as="sourcePoint" />
            <mxPoint x="-10" y="1120" as="targetPoint" />
          </mxGeometry>
        </mxCell>
        <mxCell id="zikqFcTYSRr6rRfWWHI3-27" value="" style="endArrow=classic;html=1;rounded=0;" parent="1" target="zikqFcTYSRr6rRfWWHI3-26" edge="1">
          <mxGeometry width="50" height="50" relative="1" as="geometry">
            <mxPoint x="80" y="1120" as="sourcePoint" />
            <mxPoint x="-10" y="1120" as="targetPoint" />
          </mxGeometry>
        </mxCell>
        <mxCell id="zikqFcTYSRr6rRfWWHI3-26" value="token" style="text;html=1;align=center;verticalAlign=middle;resizable=0;points=[];autosize=1;strokeColor=none;fillColor=none;" parent="1" vertex="1">
          <mxGeometry x="10" y="1105" width="50" height="30" as="geometry" />
        </mxCell>
        <mxCell id="zikqFcTYSRr6rRfWWHI3-28" value="" style="endArrow=classic;html=1;rounded=0;" parent="1" target="zikqFcTYSRr6rRfWWHI3-19" edge="1">
          <mxGeometry width="50" height="50" relative="1" as="geometry">
            <mxPoint x="-10" y="1090" as="sourcePoint" />
            <mxPoint x="80" y="1090" as="targetPoint" />
          </mxGeometry>
        </mxCell>
        <mxCell id="zikqFcTYSRr6rRfWWHI3-19" value="connect" style="text;html=1;align=center;verticalAlign=middle;whiteSpace=wrap;rounded=0;" parent="1" vertex="1">
          <mxGeometry x="10" y="1075" width="60" height="30" as="geometry" />
        </mxCell>
        <mxCell id="zikqFcTYSRr6rRfWWHI3-32" value="" style="endArrow=classic;html=1;rounded=0;" parent="1" edge="1">
          <mxGeometry width="50" height="50" relative="1" as="geometry">
            <mxPoint x="-10" y="1200" as="sourcePoint" />
            <mxPoint x="80" y="1200" as="targetPoint" />
          </mxGeometry>
        </mxCell>
        <mxCell id="zikqFcTYSRr6rRfWWHI3-33" value="send data" style="edgeLabel;html=1;align=center;verticalAlign=middle;resizable=0;points=[];" parent="zikqFcTYSRr6rRfWWHI3-32" vertex="1" connectable="0">
          <mxGeometry x="-0.1333" y="3" relative="1" as="geometry">
            <mxPoint as="offset" />
          </mxGeometry>
        </mxCell>
        <mxCell id="zikqFcTYSRr6rRfWWHI3-35" value="" style="endArrow=none;dashed=1;html=1;dashPattern=1 3;strokeWidth=2;rounded=0;" parent="1" edge="1">
          <mxGeometry width="50" height="50" relative="1" as="geometry">
            <mxPoint x="30" y="1180" as="sourcePoint" />
            <mxPoint x="30" y="1140" as="targetPoint" />
          </mxGeometry>
        </mxCell>
        <mxCell id="zikqFcTYSRr6rRfWWHI3-36" value="if not token" style="text;html=1;align=center;verticalAlign=middle;resizable=0;points=[];autosize=1;strokeColor=none;fillColor=none;" parent="1" vertex="1">
          <mxGeometry y="1045" width="80" height="30" as="geometry" />
        </mxCell>
        <mxCell id="zikqFcTYSRr6rRfWWHI3-37" value="&amp;nbsp;if token" style="text;html=1;align=center;verticalAlign=middle;resizable=0;points=[];autosize=1;strokeColor=none;fillColor=none;" parent="1" vertex="1">
          <mxGeometry x="20" y="1150" width="70" height="30" as="geometry" />
        </mxCell>
        <mxCell id="zikqFcTYSRr6rRfWWHI3-38" value="devices" style="shape=table;startSize=30;container=1;collapsible=0;childLayout=tableLayout;strokeColor=default;fontSize=16;" parent="1" vertex="1">
          <mxGeometry x="540" y="960" width="250" height="150" as="geometry" />
        </mxCell>
        <mxCell id="zikqFcTYSRr6rRfWWHI3-39" value="" style="shape=tableRow;horizontal=0;startSize=0;swimlaneHead=0;swimlaneBody=0;strokeColor=inherit;top=0;left=0;bottom=0;right=0;collapsible=0;dropTarget=0;fillColor=none;points=[[0,0.5],[1,0.5]];portConstraint=eastwest;fontSize=16;" parent="zikqFcTYSRr6rRfWWHI3-38" vertex="1">
          <mxGeometry y="30" width="250" height="40" as="geometry" />
        </mxCell>
        <mxCell id="zikqFcTYSRr6rRfWWHI3-40" value="mac" style="shape=partialRectangle;html=1;whiteSpace=wrap;connectable=0;strokeColor=inherit;overflow=hidden;fillColor=none;top=0;left=0;bottom=0;right=0;pointerEvents=1;fontSize=16;" parent="zikqFcTYSRr6rRfWWHI3-39" vertex="1">
          <mxGeometry width="83" height="40" as="geometry">
            <mxRectangle width="83" height="40" as="alternateBounds" />
          </mxGeometry>
        </mxCell>
        <mxCell id="zikqFcTYSRr6rRfWWHI3-41" value="is_active" style="shape=partialRectangle;html=1;whiteSpace=wrap;connectable=0;strokeColor=inherit;overflow=hidden;fillColor=none;top=0;left=0;bottom=0;right=0;pointerEvents=1;fontSize=16;" parent="zikqFcTYSRr6rRfWWHI3-39" vertex="1">
          <mxGeometry x="83" width="84" height="40" as="geometry">
            <mxRectangle width="84" height="40" as="alternateBounds" />
          </mxGeometry>
        </mxCell>
        <mxCell id="zikqFcTYSRr6rRfWWHI3-42" value="last_read" style="shape=partialRectangle;html=1;whiteSpace=wrap;connectable=0;strokeColor=inherit;overflow=hidden;fillColor=none;top=0;left=0;bottom=0;right=0;pointerEvents=1;fontSize=16;" parent="zikqFcTYSRr6rRfWWHI3-39" vertex="1">
          <mxGeometry x="167" width="83" height="40" as="geometry">
            <mxRectangle width="83" height="40" as="alternateBounds" />
          </mxGeometry>
        </mxCell>
        <mxCell id="zikqFcTYSRr6rRfWWHI3-43" value="" style="shape=tableRow;horizontal=0;startSize=0;swimlaneHead=0;swimlaneBody=0;strokeColor=inherit;top=0;left=0;bottom=0;right=0;collapsible=0;dropTarget=0;fillColor=none;points=[[0,0.5],[1,0.5]];portConstraint=eastwest;fontSize=16;" parent="zikqFcTYSRr6rRfWWHI3-38" vertex="1">
          <mxGeometry y="70" width="250" height="40" as="geometry" />
        </mxCell>
        <mxCell id="zikqFcTYSRr6rRfWWHI3-44" value="" style="shape=partialRectangle;html=1;whiteSpace=wrap;connectable=0;strokeColor=inherit;overflow=hidden;fillColor=none;top=0;left=0;bottom=0;right=0;pointerEvents=1;fontSize=16;" parent="zikqFcTYSRr6rRfWWHI3-43" vertex="1">
          <mxGeometry width="83" height="40" as="geometry">
            <mxRectangle width="83" height="40" as="alternateBounds" />
          </mxGeometry>
        </mxCell>
        <mxCell id="zikqFcTYSRr6rRfWWHI3-45" value="" style="shape=partialRectangle;html=1;whiteSpace=wrap;connectable=0;strokeColor=inherit;overflow=hidden;fillColor=none;top=0;left=0;bottom=0;right=0;pointerEvents=1;fontSize=16;" parent="zikqFcTYSRr6rRfWWHI3-43" vertex="1">
          <mxGeometry x="83" width="84" height="40" as="geometry">
            <mxRectangle width="84" height="40" as="alternateBounds" />
          </mxGeometry>
        </mxCell>
        <mxCell id="zikqFcTYSRr6rRfWWHI3-46" value="" style="shape=partialRectangle;html=1;whiteSpace=wrap;connectable=0;strokeColor=inherit;overflow=hidden;fillColor=none;top=0;left=0;bottom=0;right=0;pointerEvents=1;fontSize=16;" parent="zikqFcTYSRr6rRfWWHI3-43" vertex="1">
          <mxGeometry x="167" width="83" height="40" as="geometry">
            <mxRectangle width="83" height="40" as="alternateBounds" />
          </mxGeometry>
        </mxCell>
        <mxCell id="zikqFcTYSRr6rRfWWHI3-47" value="" style="shape=tableRow;horizontal=0;startSize=0;swimlaneHead=0;swimlaneBody=0;strokeColor=inherit;top=0;left=0;bottom=0;right=0;collapsible=0;dropTarget=0;fillColor=none;points=[[0,0.5],[1,0.5]];portConstraint=eastwest;fontSize=16;" parent="zikqFcTYSRr6rRfWWHI3-38" vertex="1">
          <mxGeometry y="110" width="250" height="40" as="geometry" />
        </mxCell>
        <mxCell id="zikqFcTYSRr6rRfWWHI3-48" value="" style="shape=partialRectangle;html=1;whiteSpace=wrap;connectable=0;strokeColor=inherit;overflow=hidden;fillColor=none;top=0;left=0;bottom=0;right=0;pointerEvents=1;fontSize=16;" parent="zikqFcTYSRr6rRfWWHI3-47" vertex="1">
          <mxGeometry width="83" height="40" as="geometry">
            <mxRectangle width="83" height="40" as="alternateBounds" />
          </mxGeometry>
        </mxCell>
        <mxCell id="zikqFcTYSRr6rRfWWHI3-49" value="" style="shape=partialRectangle;html=1;whiteSpace=wrap;connectable=0;strokeColor=inherit;overflow=hidden;fillColor=none;top=0;left=0;bottom=0;right=0;pointerEvents=1;fontSize=16;" parent="zikqFcTYSRr6rRfWWHI3-47" vertex="1">
          <mxGeometry x="83" width="84" height="40" as="geometry">
            <mxRectangle width="84" height="40" as="alternateBounds" />
          </mxGeometry>
        </mxCell>
        <mxCell id="zikqFcTYSRr6rRfWWHI3-50" value="" style="shape=partialRectangle;html=1;whiteSpace=wrap;connectable=0;strokeColor=inherit;overflow=hidden;fillColor=none;top=0;left=0;bottom=0;right=0;pointerEvents=1;fontSize=16;" parent="zikqFcTYSRr6rRfWWHI3-47" vertex="1">
          <mxGeometry x="167" width="83" height="40" as="geometry">
            <mxRectangle width="83" height="40" as="alternateBounds" />
          </mxGeometry>
        </mxCell>
        <mxCell id="a-jfa-FCJMUlIHwbyGaB-1" value="CQRS" style="text;strokeColor=none;fillColor=none;align=left;verticalAlign=middle;spacingLeft=4;spacingRight=4;overflow=hidden;points=[[0,0.5],[1,0.5]];portConstraint=eastwest;rotatable=0;whiteSpace=wrap;html=1;" parent="1" vertex="1">
          <mxGeometry x="-100" y="610" width="80" height="30" as="geometry" />
        </mxCell>
        <mxCell id="a-jfa-FCJMUlIHwbyGaB-14" style="edgeStyle=orthogonalEdgeStyle;rounded=0;orthogonalLoop=1;jettySize=auto;html=1;entryX=0;entryY=0.5;entryDx=0;entryDy=0;" parent="1" source="a-jfa-FCJMUlIHwbyGaB-2" target="a-jfa-FCJMUlIHwbyGaB-4" edge="1">
          <mxGeometry relative="1" as="geometry" />
        </mxCell>
        <mxCell id="a-jfa-FCJMUlIHwbyGaB-2" value="Actor" style="shape=umlActor;verticalLabelPosition=bottom;verticalAlign=top;html=1;outlineConnect=0;" parent="1" vertex="1">
          <mxGeometry x="-760" y="1301" width="30" height="60" as="geometry" />
        </mxCell>
        <mxCell id="a-jfa-FCJMUlIHwbyGaB-16" style="edgeStyle=orthogonalEdgeStyle;rounded=0;orthogonalLoop=1;jettySize=auto;html=1;entryX=0;entryY=0.5;entryDx=0;entryDy=0;" parent="1" source="a-jfa-FCJMUlIHwbyGaB-4" target="a-jfa-FCJMUlIHwbyGaB-15" edge="1">
          <mxGeometry relative="1" as="geometry">
            <Array as="points">
              <mxPoint x="-620" y="1501" />
              <mxPoint x="-520" y="1501" />
            </Array>
          </mxGeometry>
        </mxCell>
        <mxCell id="a-jfa-FCJMUlIHwbyGaB-20" style="edgeStyle=orthogonalEdgeStyle;rounded=0;orthogonalLoop=1;jettySize=auto;html=1;entryX=0.5;entryY=1;entryDx=0;entryDy=0;" parent="1" source="a-jfa-FCJMUlIHwbyGaB-4" target="a-jfa-FCJMUlIHwbyGaB-11" edge="1">
          <mxGeometry relative="1" as="geometry" />
        </mxCell>
        <mxCell id="a-jfa-FCJMUlIHwbyGaB-4" value="&lt;div&gt;FRONT&lt;/div&gt;" style="rounded=0;whiteSpace=wrap;html=1;" parent="1" vertex="1">
          <mxGeometry x="-670" y="1301" width="120" height="60" as="geometry" />
        </mxCell>
        <mxCell id="a-jfa-FCJMUlIHwbyGaB-13" style="edgeStyle=orthogonalEdgeStyle;rounded=0;orthogonalLoop=1;jettySize=auto;html=1;" parent="1" source="a-jfa-FCJMUlIHwbyGaB-11" target="a-jfa-FCJMUlIHwbyGaB-12" edge="1">
          <mxGeometry relative="1" as="geometry" />
        </mxCell>
        <mxCell id="a-jfa-FCJMUlIHwbyGaB-23" style="edgeStyle=orthogonalEdgeStyle;rounded=0;orthogonalLoop=1;jettySize=auto;html=1;entryX=0.5;entryY=0;entryDx=0;entryDy=0;" parent="1" source="a-jfa-FCJMUlIHwbyGaB-11" target="a-jfa-FCJMUlIHwbyGaB-4" edge="1">
          <mxGeometry relative="1" as="geometry" />
        </mxCell>
        <mxCell id="a-jfa-FCJMUlIHwbyGaB-11" value="zarzadzanie danych" style="rounded=0;whiteSpace=wrap;html=1;" parent="1" vertex="1">
          <mxGeometry x="-420" y="1200" width="120" height="50" as="geometry" />
        </mxCell>
        <mxCell id="a-jfa-FCJMUlIHwbyGaB-22" style="edgeStyle=orthogonalEdgeStyle;rounded=0;orthogonalLoop=1;jettySize=auto;html=1;entryX=1;entryY=0;entryDx=0;entryDy=0;" parent="1" source="a-jfa-FCJMUlIHwbyGaB-12" target="a-jfa-FCJMUlIHwbyGaB-11" edge="1">
          <mxGeometry relative="1" as="geometry">
            <Array as="points">
              <mxPoint x="-410" y="1140" />
              <mxPoint x="-410" y="1200" />
            </Array>
          </mxGeometry>
        </mxCell>
        <mxCell id="a-jfa-FCJMUlIHwbyGaB-12" value="READ" style="shape=cylinder3;whiteSpace=wrap;html=1;boundedLbl=1;backgroundOutline=1;size=15;" parent="1" vertex="1">
          <mxGeometry x="-400" y="1070" width="60" height="80" as="geometry" />
        </mxCell>
        <mxCell id="a-jfa-FCJMUlIHwbyGaB-17" style="edgeStyle=orthogonalEdgeStyle;rounded=0;orthogonalLoop=1;jettySize=auto;html=1;entryX=0.5;entryY=1;entryDx=0;entryDy=0;" parent="1" source="a-jfa-FCJMUlIHwbyGaB-15" target="a-jfa-FCJMUlIHwbyGaB-4" edge="1">
          <mxGeometry relative="1" as="geometry">
            <Array as="points">
              <mxPoint x="-480" y="1401" />
              <mxPoint x="-610" y="1401" />
            </Array>
          </mxGeometry>
        </mxCell>
        <mxCell id="a-jfa-FCJMUlIHwbyGaB-15" value="auth" style="rounded=0;whiteSpace=wrap;html=1;" parent="1" vertex="1">
          <mxGeometry x="-520" y="1474" width="120" height="60" as="geometry" />
        </mxCell>
        <mxCell id="a-jfa-FCJMUlIHwbyGaB-21" value="&lt;div&gt;zarzadzanie urzadzeniami&lt;/div&gt;" style="rounded=0;whiteSpace=wrap;html=1;" parent="1" vertex="1">
          <mxGeometry x="-545" y="1371" width="120" height="60" as="geometry" />
        </mxCell>
      </root>
    </mxGraphModel>
  </diagram>
</mxfile>
